<svg id="Layer_1" data-name="Layer 1" xmlns="http://www.w3.org/2000/svg" viewBox="0 0 182 256"><defs><style>.cls-1{fill:#e44d26;}.cls-1,.cls-2,.cls-3,.cls-4{fill-rule:evenodd;}.cls-2{fill:#f16529;}.cls-3{fill:#ebebeb;}.cls-4{fill:#fff;}</style></defs><polygon id="Path" class="cls-1" points="181.68 50.18 165.16 234.81 90.89 255.35 16.82 234.84 0.32 50.18 181.68 50.18"/><polygon id="Path-2" data-name="Path" class="cls-2" points="91 239.65 151.01 223.06 165.13 65.28 91 65.28 91 239.65"/><polygon id="Path-3" data-name="Path" class="cls-3" points="58.88 110.58 91 110.58 91 87.93 34.07 87.93 34.61 94.01 40.19 156.42 91 156.42 91 133.77 60.95 133.77 58.88 110.58"/><polygon id="Path-4" data-name="Path" class="cls-3" points="64 167.74 41.2 167.74 44.39 203.3 90.9 216.18 91 216.15 91 192.59 90.9 192.62 65.61 185.8 64 167.74"/><polygon id="Path-5" data-name="Path" class="cls-4" points="17.19 0 28.73 0 28.73 11.37 39.28 11.37 39.28 0 50.82 0 50.82 34.44 39.28 34.44 39.28 22.9 28.73 22.9 28.73 34.44 17.19 34.44 17.19 0 17.19 0"/><polygon id="Path-6" data-name="Path" class="cls-4" points="66 11.42 55.84 11.42 55.84 0 87.7 0 87.7 11.42 77.54 11.42 77.54 34.44 66 34.44 66 11.42 66 11.42"/><polygon id="Path-7" data-name="Path" class="cls-4" points="92.76 0 104.79 0 112.19 12.1 119.58 0 131.62 0 131.62 34.44 120.13 34.44 120.13 17.37 112.19 29.61 111.99 29.61 104.05 17.37 104.05 34.44 92.76 34.44 92.76 0"/><polygon id="Path-8" data-name="Path" class="cls-4" points="137.36 0 148.9 0 148.9 23.05 165.13 23.05 165.13 34.44 137.36 34.44 137.36 0"/><polygon id="Path-9" data-name="Path" class="cls-4" points="90.92 156.42 118.88 156.42 116.25 185.79 90.92 192.61 90.92 216.17 137.47 203.3 137.81 199.48 143.15 139.85 143.7 133.77 90.92 133.77 90.92 156.42"/><polygon id="Path-10" data-name="Path" class="cls-4" points="90.92 110.52 90.92 110.58 145.77 110.58 146.22 105.49 147.25 94.01 147.8 87.93 90.92 87.93 90.92 110.52"/></svg>