<svg id="Layer_1" data-name="Layer 1" xmlns="http://www.w3.org/2000/svg" viewBox="0 0 852.75 328.88"><defs><style>.cls-1{fill:#fff;}</style></defs><path class="cls-1" d="M193.68,167.73A121.1,121.1,0,0,0,103,50.48c-2-.57-4.67-1-6.21-1.39V0C41.67,11,0,60.06,0,118.65A121.13,121.13,0,0,0,86,234.59a69.09,69.09,0,0,0,8,2.11l2.8.33V186.36A72.47,72.47,0,0,1,50.32,135a73.53,73.53,0,0,1-2-17.25,72.7,72.7,0,0,1,48.5-68.64V99.74a72.76,72.76,0,0,1,0,137.29v49.32l53.14,42.53,37.87-33.51-40.81-32A121.07,121.07,0,0,0,193.68,167.73Z"/><path class="cls-1" d="M486.15,216.43l-6.77,19H451.85L502.3,100.68H528L578.2,235.45H550.83L515.18,134.84l-20.9,58.77h19.9l8.09,22.82Z"/><path class="cls-1" d="M463.41,123l-8.05-22.28h-92.1L371.6,123h26.29V236h27.72V123Z"/><path class="cls-1" d="M671.19,123l-8.05-22.28H569.32L577.66,123H604.4V236h27.71V123Z"/><path class="cls-1" d="M852.75,165.34q0-19.78-7.17-34.91a53.42,53.42,0,0,0-20.25-23.21q-13.08-8.09-29.92-8.09t-29.91,8.09a53.42,53.42,0,0,0-20.25,23.21q-7.17,15.12-7.17,35v6.66q.09,19.42,7.31,34.36a53.46,53.46,0,0,0,20.34,23,56,56,0,0,0,29.87,8.05,61.23,61.23,0,0,0,10.17-.83l28.67,23L852.1,244l-22.38-17.57a56.32,56.32,0,0,0,16.92-22.34q6.11-13.9,6.11-32.78ZM825,171.81q-.09,21.08-7.61,32.08t-21.55,11q-14.29,0-21.91-11.43t-7.62-32.13v-6.59q.09-21.08,7.71-32t21.64-10.91q14.12,0,21.73,11.05T825,165.21Z"/><path class="cls-1" d="M718.52,100.68H690.8V235.45h27.72Z"/><path class="cls-1" d="M319.53,200.66A13.14,13.14,0,0,1,314,211.94q-5.56,4-15.5,4-26.73,0-26.73-22.36H243.8a40,40,0,0,0,6.73,23q6.72,9.93,19.53,15.64a68.91,68.91,0,0,0,28.4,5.71q22.46,0,35.73-10t13.27-27.51q0-15.78-10.86-26.36T302,156.39q-12.9-3.9-19.54-8.35t-6.64-11a13.6,13.6,0,0,1,5.67-11.37q5.65-4.32,15.87-4.32,10.57,0,16.42,5.15t5.85,14.43h27.84a38.76,38.76,0,0,0-6.26-21.71,41.08,41.08,0,0,0-17.59-14.8,60.68,60.68,0,0,0-25.8-5.25A66.66,66.66,0,0,0,271.87,104q-11.55,4.83-17.72,13.41A32.58,32.58,0,0,0,248,136.9q0,21.07,23,33.51a141.9,141.9,0,0,0,22.92,9.23q14.47,4.7,20,8.91T319.53,200.66Z"/></svg>