<svg version="1.0" xmlns="http://www.w3.org/2000/svg" viewBox="0 0 103.6 70.4"><path fill="#884B2E" d="M0 17.2h103.6v53.2H0z"/><path opacity=".2" fill="#FFF" d="M98 34.6h5.6v35.8H0l5.7-5.9H33l2.2 5.9 2.3-5.9h28.6l2.2 5.9 2.3-5.9H98z"/><path opacity=".3" fill="#FFF" d="M66.1 64.5v-28h2.2v33.9zm-33.1 0v-28h2.2v33.9z"/><path d="M68.3 70.4V36.5h2.3v28zm-33.1 0V36.5h2.3v28zM0 70.4V33.6h5.7v30.9z" opacity=".2" fill="#12100B"/><path fill="#80B5E3" d="M5.6 52.4L0 48V0h103.6v48.4l-5.6 4-9.5-1.8-9.4 6.2-3.8-4.4L60.9 55l-7.7-4.9-5.4 3.7L35 49.1l-7.5 2.1-11.9 3.5z"/><path fill="#FDC300" d="M42.3 19.6s.1 0 0 0c.1 0 0 0 0 0z"/><g fill="#242C5C"><path d="M81.6 30c1.6.3 4.9-4.1 6-5.3 1.2-1.3 2-.7 1.3.7-.6 1.4-1.9 3.7-1.1 4.1 1.7.7 3.4-1.9 4-3 1.9-3.5 1.9.2 1.6 2-.8 4-.7 14.2-16.6 13-2.6-.2-6.9-2.9-4.7-5.5 2.2-2.7 10.2-3.5 12.8-1.3.8.7.5 1.8-.7 1.2-.9-.5-2.4-1.1-5-.7-1.2.2-3.2 1.5-1.6 2.7 1.6 1.2 7.8.6 9.7-.6 3.7-2.2 3.2-6.2 3.5-6.7-.7.8-1.7 1.9-4.1 1.6-1.7-.2-1.4-1.8-1.3-2.7-1.5 1.5-2.7 2.1-4.2 2.1-.8 0-1.7-.2-2.4-.9-4.4 2-7 0-5.5-4.2 1.1-3.1 2.6-5.9 3.3-7.1 1.8-3 4.1-1.5 3.1 0-1.2 1.9-3.5 4.7-4.5 7.2-1.5 3.8 1.8 3.7 3 3.2 0-.1-.1-.2-.1-.3-1.2-3.3 2.5-8.1 6.1-5.4 1 1.5-1.1 3.9-3.5 5.5-.1.1-.2.1-.3.2.4 0 .8.1 1.2.2zm-1.8-1.2c1.6-1.1 2.9-2.6 2.2-3.1-1.1-.9-2.9 1.5-2.2 3.1zm-63.1 6.7c2.6 1.7 6.6-6.4 4.5-7.5-3.2-1.8-7.5 5.1-7.7 8.4-.2 2.7 1.9 5.1 5 3.9 3.8-1.5 5.7-3.9 7.2-6.6 1-1.6 4.8-9.7 3.4-10.8-1.2-.9-3.4.9-2.9 5.2.2 1.7 1 4.4 1.4 7.2.6-1.5 1.9-3.7 3.3-4.2 4.4-1.4-.1 6.7 1.8 6 1.3-.5 1.7-8.2 5.5-8.9 3.4-.6 3.2 6.1.1 8.1-2.9 1.9-4-1.4-3.3-4.2.3-1.2 2.2-2.2 1.5-1-.8 1.4-.2 3.6 1.1 3.1 2.2-.9 2.7-5.8.4-4.5-2.5 1.3-2.2 6.1-4.2 8.2-.7.7-1.9.9-2.2.6-1.1-.9 1.1-6-.5-5.5-1.3.4-1.9 3.7-2.5 5.3-.1.3-.2 1.9-.2 1.9l-1.6.7c-.1-3.4-.7-6.9-1.6-11.6-.9-4.9 1.7-9.6 4.8-10 4.7-.7 3 4 1.3 7-3 5.2-6.3 13.6-10.5 17.7-5.8 5.5-12.6.5-11.2-6.6.9-4.4 5.5-12.8 11.4-11.2 4.9 1.4 2.5 6.9.2 9.5-1.2 1.3-3.5 2.3-5 .9-.6-.5-.3-1.6.5-1.1zm29.5-6.6c0-1-.5-1.2-1.3-.9-1.1.3-2 1.8-1.8 3.2.1.8.9 1.5 2.3 1.1 2.6-.7 3.5-5.3 5.6-6.8 4.1-2.9 6 3.9 2.7 7-2.1 2-5.1.9-5-2.5.1-2.4 1.7-5.1 4.3-5.3 2.6-.3 2.7 2.2 5 2.4 2.4.2 3.9-4.9 3.6-7.1-.3-2.4-1.8-2.1-3.2 1.2-.9 2.1-1.3 8.7 1.3 9.1 2.2.3 4.3-7.5 8.6-7.2 2.8.2 3 5.9.7 7.5-1.1 1.1-2.5 1.1-3.5 1-2.7-.2-2.9-4.2-.9-6.5 1.1-1.2 2.2-.8 1 .3-1.4 1.3-.9 3.3.3 3.5 3.4.5 3.8-4.9 1.3-4.4-.9.2-2.1 1.1-3.6 3.5-.9 1.4-2.5 4.1-3.7 4.4-1.2.3-2.2-.1-2.9-2.3-1-3.1-.5-6.8.3-9.7 2.2-7.9 8.6-5.2 7.2 0-.6 2.4-2.7 6.5-5 7.7-2.7 1.3-3.1-1.2-5.3-1.9-3.2-1.1-5.9 4.4-2.2 4.3 2.6-.4 3.4-5.3.4-4.1-2.9 1.1-3.3 5.3-5.4 7.5-2.9 3-6.1.6-5.3-3.7.2-1.3 1.8-3.3 3.4-3.6 1.7-.3 2.7.8 2.3 2.5-.4.5-1.2.6-1.2-.2z"/><path d="M72 24.8c-1.4 1.4-1.6 3.8-.3 4.8.5.5 1.9.4 2.9-.2l.4.9c-3.4 2.7-6.3 0-5.4-4 .1-.4.7-1.6 1.3-2.3.9-1 2-.1 1.1.8zm1.3-3.5c-1.6-.8-1.8.4-.9.9 4.1 2.4 7.3 1.2 8.2.3.9-.8.2-1.3-.6-1.1-2.5.8-4.7.9-6.7-.1z"/></g><path opacity=".2" fill="#FFF" d="M103.6 0H98v52.4l5.6-4z"/><path opacity=".2" fill="#12100B" d="M5.6 52.4V0H0v48z"/></svg>