<svg id="svg3476" xmlns="http://www.w3.org/2000/svg" viewBox="0 0 290.19 409.6"><defs><style>.cls-3{fill:#ebebeb}.cls-4{fill:#fff}</style></defs><g id="g3013"><path id="polygon2989" fill="#264de4" d="M290.19 80.5l-26.44 296.15-118.83 32.95-118.51-32.9L0 80.5h290.19z"/><path id="polygon2991" fill="#2965f1" d="M241.12 357.8l22.59-253.08H145.09v279.7l96.03-26.62z"/><path id="polygon2993" class="cls-3" d="M60.54 214.57l3.26 36.33h81.29v-36.33H60.54z"/><path id="polygon2995" class="cls-3" d="M145.09 141.04H54l3.3 36.33h87.79v-36.33z"/><path id="polygon2997" class="cls-3" d="M145.09 346.72v-37.8l-.16.04-40.46-10.92-2.58-28.97H65.42l5.09 57.04 74.42 20.66.16-.05z"/><path id="path2999" class="cls-4" d="M68.29 0h44v18.4h-25.6v18.4h25.6v18.4h-44z"/><path id="path3001" class="cls-4" d="M121.09 0h44v16h-25.6v3.2h25.6V56h-44V39.2h25.6V36h-25.6z"/><path id="path3003" class="cls-4" d="M173.89 0h44v16h-25.6v3.2h25.6V56h-44V39.2h25.6V36h-25.6z"/><path id="polygon3005" class="cls-4" d="M189.7 250.9l-4.21 47.12-40.52 10.93v37.8l74.47-20.64.55-6.14 8.54-95.64.88-9.76 6.56-73.53h-91v36.33h51.19l-3.31 37.2h-47.88v36.33h44.73z"/></g></svg>