<svg data-name="Layer 1" xmlns="http://www.w3.org/2000/svg" viewBox="0 0 218.37 91.21"><path d="M147.06 31.31a13.77 13.77 0 013.22 8.79c0 9.66-7.57 15.32-18.53 15.32a27.35 27.35 0 01-6.88-.79L122 59.25l8.52.52c15.06 1 23.94 1.39 23.94 13 0 10-8.79 15.67-23.94 15.67-15.75 0-21.75-4-21.75-10.88 0-3.92 1.74-6 4.78-8.88a5.8 5.8 0 01-3.83-5.74 7.83 7.83 0 012.53-5.31c1.57-1.65 3.31-3.31 5.39-5.22-4.26-2.09-7.48-6.62-7.48-13.06 0-10 6.61-16.88 19.93-16.88a30.15 30.15 0 018 .87h17v7.4zM121.3 71c-1.13 1.39-2.26 2.86-2.26 4.61 0 3.48 4.43 4.52 10.53 4.52 5.05 0 11.92-.35 11.92-5 0-2.79-3.31-3-7.49-3.23zm9.57-40c-4.79 0-8.35 2.36-8.35 8 0 4.27 2.35 7.23 8.09 7.23 4.87 0 8.18-2.87 8.18-7.4 0-5.08-2.96-7.83-7.92-7.83zm28.28 36.79v-6.87l4.44-.61c1.22-.17 1.39-.43 1.39-1.74V33c0-.95-.26-1.56-1.13-1.82l-4.7-1.66 1-7h18v36.05c0 1.4.09 1.57 1.4 1.74l4.44.61v6.87zm11.23-52.3c-5 0-7.83-2.87-7.83-7.83S165.42 0 170.38 0s7.92 2.7 7.92 7.66-2.87 7.83-7.92 7.83zm47.99 48.93a34.71 34.71 0 01-14.19 3.48c-10.35 0-14.27-4.17-14.27-14V31.09c0-.52 0-.87-.7-.87h-6.09v-7.75c7.66-.87 10.71-4.7 11.66-14.19h8.27v12.36c0 .61 0 .88.7.88H216v8.7h-13V51c0 5.13 1.22 7.13 5.92 7.13a20.81 20.81 0 007.08-1.37z" fill="#413000"/><path d="M89.42 41.58L49.63 1.79a5.87 5.87 0 00-8.3 0l-8.26 8.26 10.48 10.49a7 7 0 018.82 8.88l10.11 10.1a7 7 0 11-4.19 3.94L48.87 34v24.83a7.13 7.13 0 011.85 1.32 7 7 0 11-9.88 0 7.1 7.1 0 012.29-1.52v-25a7 7 0 01-3.79-9.16L29 14.11 1.72 41.4a5.87 5.87 0 000 8.3l39.79 39.79a5.87 5.87 0 008.3 0l39.61-39.61a5.87 5.87 0 000-8.3z" fill="#f05133"/></svg>