<svg id="Layer_1" data-name="Layer 1" xmlns="http://www.w3.org/2000/svg" viewBox="0 0 182 256"><defs><style>.cls-3,.cls-4{fill-rule:evenodd}.cls-3{fill:#ebebeb}.cls-4{fill:#fff}</style></defs><path id="Path" fill-rule="evenodd" fill="#e44d26" d="M181.68 50.18l-16.52 184.63-74.27 20.54-74.07-20.51L.32 50.18h181.36z"/><path id="Path-2" data-name="Path" fill="#f16529" fill-rule="evenodd" d="M91 239.65l60.01-16.59 14.12-157.78H91v174.37z"/><path id="Path-3" data-name="Path" class="cls-3" d="M58.88 110.58H91V87.93H34.07l.54 6.08 5.58 62.41H91v-22.65H60.95l-2.07-23.19z"/><path id="Path-4" data-name="Path" class="cls-3" d="M64 167.74H41.2l3.19 35.56 46.51 12.88.1-.03v-23.56l-.1.03-25.29-6.82L64 167.74z"/><path id="Path-5" data-name="Path" class="cls-4" d="M17.19 0h11.54v11.37h10.55V0h11.54v34.44H39.28V22.9H28.73v11.54H17.19V0z"/><path id="Path-6" data-name="Path" class="cls-4" d="M66 11.42H55.84V0H87.7v11.42H77.54v23.02H66V11.42z"/><path id="Path-7" data-name="Path" class="cls-4" d="M92.76 0h12.03l7.4 12.1L119.58 0h12.04v34.44h-11.49V17.37l-7.94 12.24h-.2l-7.94-12.24v17.07H92.76V0z"/><path id="Path-8" data-name="Path" class="cls-4" d="M137.36 0h11.54v23.05h16.23v11.39h-27.77V0z"/><path id="Path-9" data-name="Path" class="cls-4" d="M90.92 156.42h27.96l-2.63 29.37-25.33 6.82v23.56l46.55-12.87.34-3.82 5.34-59.63.55-6.08H90.92v22.65z"/><path id="Path-10" data-name="Path" class="cls-4" d="M90.92 110.52v.06h54.85l.45-5.09 1.03-11.48.55-6.08H90.92v22.59z"/></svg>