<svg xmlns="http://www.w3.org/2000/svg" viewBox="0 0 1569.18 605.19"><defs><linearGradient id="a" x1="89.09" x2="89.09" y2="436.17" gradientUnits="userSpaceOnUse"><stop offset="0" stop-color="#8fd7fd"/><stop offset="1" stop-color="#48bdfe"/></linearGradient><linearGradient id="b" x1="267.25" y1="90.34" x2="267.25" y2="605.19" gradientUnits="userSpaceOnUse"><stop offset="0" stop-color="#d792fd"/><stop offset="1" stop-color="#bf4bff"/></linearGradient><linearGradient id="c" x1="178.23" y1="90.34" x2="178.23" y2="436.17" gradientUnits="userSpaceOnUse"><stop offset="0" stop-color="#ac83ff"/><stop offset="1" stop-color="#7849d8"/></linearGradient><linearGradient id="d" x1="254.78" y1="473.72" x2="286.91" y2="413.3" gradientUnits="userSpaceOnUse"><stop offset="0" stop-color="#a632e6"/><stop offset=".07" stop-color="#a734e7" stop-opacity=".97"/><stop offset=".17" stop-color="#a938e8" stop-opacity=".88"/><stop offset=".29" stop-color="#ac40eb" stop-opacity=".74"/><stop offset=".43" stop-color="#b04bef" stop-opacity=".55"/><stop offset=".58" stop-color="#b659f4" stop-opacity=".3"/><stop offset=".73" stop-color="#bd69fa" stop-opacity="0"/></linearGradient></defs><path d="M178.1 0C76.69 20.3 0 110.52 0 218.34a222.89 222.89 0 00158.18 213.34 127.08 127.08 0 0014.82 3.88l5.24.61" fill="url(#a)"/><path d="M178.11 526.94l97.79 78.25 69.68-61.66-75.1-59a222.77 222.77 0 0085.91-175.91c0-103.77-71-191.24-166.86-215.76-3.61-1.05-8.59-1.83-11.42-2.56" fill="url(#b)"/><path d="M178.11 90.34a133.94 133.94 0 000 252.59v93.24a133.87 133.87 0 0089.48-126.35c0-58.64-37.15-107.78-89.48-126.27" fill="url(#c)"/><path d="M270.48 484.57A224.53 224.53 0 00303.35 453l-69.56-54.25A133.76 133.76 0 01198.53 427l113.61 90.92.4-.32z" fill="url(#d)"/><path d="M894.58 398.27l-12.45 35h-50.66l92.83-248h47.35l92.32 248h-50.35L948 248.13l-38.45 108.14h36.63l14.88 42zm-41.83-172l-14.81-41H668.45l15.35 41h48.38v208h51v-208zm382.33 0l-14.81-41h-172.64l15.35 41h49.2v208h51v-208zm334.1 77.98q0-36.4-13.19-64.23t-37.26-42.71q-24.07-14.9-55-14.89t-55 14.89q-24.08 14.88-37.26 42.71t-13.19 64.4v12.25q.16 35.74 13.44 63.22t37.44 42.28Q1433.23 437 1464 437a111.73 111.73 0 0018.72-1.53l52.75 42.37 32.5-28.76-41.18-32.33q19.9-15.48 31.14-41.09t11.23-60.33zm-51 11.9q-.17 38.79-14 59t-39.65 20.25q-26.31 0-40.33-21t-14-59.12v-12.12q.18-38.79 14.19-58.87t39.81-20.08q26 0 40 20.34t14 59.47zm-196-130.88h-51v248h51zM588 369.25q0 13.32-10.25 20.74t-28.52 7.43q-49.19 0-49.18-41.15h-51.43q0 24.08 12.38 42.35t36 28.77q23.57 10.51 52.26 10.51 41.32 0 65.75-18.36t24.42-50.64q0-29-20-48.5t-63.7-32.61q-23.75-7.17-36-15.37t-12.21-20.33A25 25 0 01518 231.17q10.41-7.93 29.2-7.94 19.47 0 30.23 9.48t10.76 26.56h51.23q0-22.38-11.53-40t-32.36-27.24q-20.84-9.66-47.48-9.65-26.46 0-47.73 8.88T467.67 216a60 60 0 00-11.36 35.94q0 38.78 42.35 61.65 15.54 8.37 42.18 17T577.73 347Q588 354.73 588 369.25z" fill="#4d4d4d"/></svg>